<?xml version="1.0" encoding="utf-8"?>
<svg version="1.1" id="1" xmlns="http://www.w3.org/2000/svg" xmlns:xlink="http://www.w3.org/1999/xlink" x="0px" y="0px"
	 viewBox="0 0 200 200" style="enable-background:new 0 0 200 200;" xml:space="preserve">
<style type="text/css">
	.st0{fill:#1860A1;}
	.st1{fill:none;stroke:#1860A1;stroke-width:1.322;stroke-linecap:round;stroke-linejoin:round;stroke-miterlimit:10;}
	.st2{opacity:0.3;fill:#1860A1;}
	.st3{opacity:0.5;fill:#1860A1;}
	.st4{opacity:0.1;fill:#3881C3;}
</style>
<g>
	<path class="st0" d="M20.8,174.9l3.7,0.8c-0.8,2.7-2.1,4.8-4.1,6.3s-4.4,2.2-7.3,2.2c-3,0-5.4-0.6-7.3-1.7
		c-1.9-1.1-3.3-2.7-4.3-4.8c-1-2.1-1.5-4.4-1.5-6.8c0-2.6,0.5-4.9,1.6-6.9c1.1-2,2.7-3.4,4.7-4.5c2-1,4.3-1.5,6.7-1.5
		c2.8,0,5.1,0.6,7,1.9s3.2,3.1,3.9,5.4l-3.6,0.8c-0.6-1.8-1.6-3.2-2.8-4c-1.2-0.8-2.7-1.3-4.6-1.3c-2.1,0-3.9,0.5-5.3,1.4
		c-1.4,0.9-2.4,2.2-3,3.7c-0.6,1.6-0.9,3.2-0.9,4.9c0,2.1,0.3,4,1,5.6s1.7,2.8,3.2,3.6c1.4,0.8,3,1.2,4.7,1.2c2,0,3.8-0.5,5.2-1.6
		C19.3,178.7,20.3,177.1,20.8,174.9z"/>
	<path class="st0" d="M30.4,183.8v-18.3h3v2.8c0.8-1.3,1.5-2.2,2.2-2.6c0.7-0.4,1.4-0.6,2.2-0.6c1.1,0,2.3,0.3,3.5,1l-1.2,2.9
		c-0.8-0.4-1.7-0.7-2.5-0.7c-0.7,0-1.4,0.2-2,0.6c-0.6,0.4-1,1-1.3,1.7c-0.4,1.1-0.6,2.3-0.6,3.6v9.6H30.4z"/>
	<path class="st0" d="M45,190.8l-0.4-2.9c0.7,0.2,1.4,0.3,1.9,0.3c0.8,0,1.4-0.1,1.8-0.3c0.5-0.2,0.8-0.6,1.1-1
		c0.2-0.3,0.6-1.1,1-2.3c0.1-0.2,0.2-0.4,0.3-0.8l-7.6-18.3h3.7l4.2,10.6c0.5,1.3,1,2.8,1.4,4.2c0.4-1.4,0.9-2.8,1.4-4.2l4.3-10.7
		h3.4L54,184.1c-0.8,2-1.4,3.4-1.9,4.2c-0.6,1-1.3,1.8-2.1,2.2c-0.8,0.5-1.7,0.7-2.8,0.7C46.6,191.2,45.8,191.1,45,190.8z"/>
	<path class="st0" d="M65,178.3l3.4-0.5c0.2,1.2,0.7,2.2,1.6,2.8c0.9,0.7,2.1,1,3.6,1c1.6,0,2.7-0.3,3.5-0.9c0.8-0.6,1.1-1.3,1.1-2
		c0-0.7-0.3-1.3-1-1.7c-0.5-0.3-1.6-0.6-3.5-1.1c-2.5-0.6-4.2-1.1-5.2-1.5c-1-0.4-1.7-1-2.2-1.7s-0.7-1.6-0.7-2.5
		c0-0.8,0.2-1.6,0.6-2.3c0.4-0.7,1-1.3,1.7-1.7c0.5-0.4,1.2-0.7,2.2-0.9c0.9-0.2,1.9-0.4,2.9-0.4c1.6,0,2.9,0.2,4.1,0.6
		c1.2,0.4,2.1,1,2.6,1.7c0.6,0.7,1,1.7,1.2,2.8l-3.3,0.4c-0.2-0.9-0.6-1.7-1.3-2.2c-0.7-0.5-1.7-0.8-3.1-0.8c-1.6,0-2.7,0.2-3.3,0.7
		c-0.7,0.5-1,1-1,1.7c0,0.4,0.1,0.8,0.4,1.1c0.3,0.3,0.7,0.6,1.3,0.8c0.3,0.1,1.3,0.4,3,0.8c2.4,0.6,4.1,1.1,5,1.4
		c0.9,0.4,1.7,0.9,2.2,1.6c0.5,0.7,0.8,1.6,0.8,2.7c0,1-0.3,2-1,2.9c-0.7,0.9-1.6,1.6-2.9,2.1c-1.2,0.5-2.6,0.7-4.2,0.7
		c-2.6,0-4.6-0.5-5.9-1.5C66.3,181.7,65.4,180.3,65,178.3z"/>
	<path class="st0" d="M95,181l0.5,2.7c-1,0.2-1.8,0.3-2.6,0.3c-1.2,0-2.2-0.2-2.9-0.5c-0.7-0.4-1.2-0.8-1.4-1.4
		c-0.3-0.6-0.4-1.8-0.4-3.7v-10.5h-2.5v-2.4h2.5V161l3.4-1.9v6.4H95v2.4h-3.4v10.7c0,0.9,0.1,1.5,0.2,1.7c0.1,0.3,0.3,0.5,0.6,0.6
		c0.3,0.1,0.7,0.2,1.2,0.2C93.9,181.1,94.4,181.1,95,181z"/>
	<path class="st0" d="M113.3,181.5c-1.3,1-2.5,1.7-3.6,2.1c-1.2,0.4-2.4,0.6-3.7,0.6c-2.2,0-3.9-0.5-5.1-1.5c-1.2-1-1.8-2.2-1.8-3.8
		c0-0.9,0.2-1.7,0.7-2.5c0.4-0.7,1-1.3,1.8-1.8c0.7-0.4,1.5-0.8,2.4-1c0.7-0.2,1.7-0.3,3-0.5c2.7-0.3,4.8-0.7,6-1.1
		c0-0.4,0-0.7,0-0.8c0-1.3-0.3-2.2-1-2.7c-0.9-0.7-2.2-1.1-3.9-1.1c-1.6,0-2.8,0.3-3.5,0.8s-1.3,1.4-1.7,2.7l-3.3-0.4
		c0.3-1.3,0.8-2.3,1.5-3.1c0.7-0.8,1.7-1.4,3-1.8c1.3-0.4,2.8-0.6,4.5-0.6c1.7,0,3.1,0.2,4.2,0.6c1.1,0.4,1.9,0.8,2.4,1.4
		c0.5,0.6,0.9,1.3,1.1,2.1c0.1,0.5,0.2,1.5,0.2,2.9v4.1c0,2.9,0.1,4.7,0.2,5.5c0.1,0.8,0.4,1.5,0.9,2.2H114
		C113.6,183.1,113.4,182.4,113.3,181.5z M113,174.6c-1.2,0.5-3.1,0.9-5.5,1.2c-1.4,0.2-2.4,0.4-3,0.6c-0.6,0.2-1,0.6-1.3,1
		c-0.3,0.4-0.5,0.9-0.5,1.5c0,0.8,0.3,1.5,1,2.1c0.7,0.6,1.7,0.8,3,0.8c1.3,0,2.5-0.3,3.5-0.8c1-0.5,1.8-1.2,2.2-2.1
		c0.4-0.7,0.5-1.7,0.5-3.1V174.6z"/>
	<path class="st0" d="M123.9,183.8v-25.3h3.7v22.3h13.6v3H123.9z"/>
	<path class="st0" d="M167.1,174.9l3.7,0.8c-0.8,2.7-2.1,4.8-4.1,6.3c-2,1.4-4.4,2.2-7.3,2.2c-3,0-5.4-0.6-7.3-1.7
		c-1.9-1.1-3.3-2.7-4.3-4.8c-1-2.1-1.5-4.4-1.5-6.8c0-2.6,0.5-4.9,1.6-6.9c1.1-2,2.7-3.4,4.7-4.5c2-1,4.3-1.5,6.7-1.5
		c2.8,0,5.1,0.6,7,1.9c1.9,1.3,3.2,3.1,3.9,5.4l-3.6,0.8c-0.6-1.8-1.6-3.2-2.8-4c-1.2-0.8-2.7-1.3-4.6-1.3c-2.1,0-3.9,0.5-5.3,1.4
		c-1.4,0.9-2.4,2.2-3,3.7c-0.6,1.6-0.9,3.2-0.9,4.9c0,2.1,0.3,4,1,5.6c0.7,1.6,1.7,2.8,3.2,3.6c1.4,0.8,3,1.2,4.7,1.2
		c2,0,3.8-0.5,5.2-1.6C165.7,178.7,166.6,177.1,167.1,174.9z"/>
	<path class="st0" d="M174.2,183.8l10.6-25.3h3.9l11.3,25.3h-4.2l-3.2-7.7h-11.5l-3,7.7H174.2z M182.1,173.4h9.4l-2.9-7
		c-0.9-2.1-1.5-3.9-2-5.2c-0.4,1.6-0.8,3.2-1.5,4.8L182.1,173.4z"/>
</g>
<g>
	<g>
		<polyline class="st1" points="98.1,0.7 35.7,36.7 35.7,108.8 98.1,144.8 		"/>
		<polyline class="st1" points="77.5,37 36,37 98.3,144.8 		"/>
		<line class="st1" x1="98.3" y1="0.7" x2="36" y2="108.6"/>
		<polygon class="st1" points="98.3,0.7 160.5,108.6 119.1,108.6 		"/>
		<polyline class="st1" points="119.1,37 160.5,37 36,108.6 		"/>
		<polyline class="st1" points="36,37 119.1,108.6 98.4,144.8 160.8,108.8 160.8,36.7 98.4,0.7 		"/>
	</g>
	<polygon class="st2" points="119.2,108.6 98.4,144.8 161,108.8 	"/>
	<polygon class="st0" points="35.9,108.8 98.4,144.8 67.3,90.9 	"/>
	<polygon class="st3" points="35.9,36.7 67.3,90.9 161,36.7 	"/>
	<polygon class="st2" points="98.3,0.7 35.9,36.7 35.9,108.8 	"/>
	<polygon class="st2" points="98.3,0.7 161,36.7 161,108.8 	"/>
	<polygon class="st4" points="98.3,0.7 63.6,60.7 119.2,108.6 	"/>
	<polygon class="st0" points="98.3,0.7 129.5,54.6 161,36.7 	"/>
</g>
</svg>
