<?xml version="1.0" encoding="utf-8"?>
<!-- Generator: Adobe Illustrator 25.4.1, SVG Export Plug-In . SVG Version: 6.00 Build 0)  -->
<svg version="1.1" xmlns="http://www.w3.org/2000/svg" xmlns:xlink="http://www.w3.org/1999/xlink" x="0px" y="0px"
	 viewBox="0 0 182.73 87.61" style="enable-background:new 0 0 182.73 87.61;" xml:space="preserve">
<style type="text/css">
	.st0{fill:#5C246A;}
	.st1{fill:#FFFFFF;}
	.st2{display:none;fill:none;stroke:#F8B62D;stroke-width:0.5;stroke-miterlimit:10;}
	.st3{display:none;fill:none;stroke:#EFB134;stroke-width:0.5;stroke-miterlimit:10;}
	.st4{fill:none;stroke:#000000;stroke-width:0.5;stroke-miterlimit:10;}
</style>
<g id="图层_2">
</g>
<g id="图层_1">
	<g>
		<g>
			<path class="st0" d="M113.81,37.63v21.71h12.43c4.98,0,9.02-4.04,9.02-9.02V28.61h-12.43C117.85,28.61,113.81,32.65,113.81,37.63
				z"/>
		</g>
		<g>
			<path class="st1" d="M39.19,34.43h21.17C87.9,34.43,96.09,12.52,98.52,0H76.28c-5.53,12.79-20.35,12.97-20.35,12.97H44.16
				c0,0-12.94,0.3-20.89-12.97H1.03C3.46,12.52,11.66,34.43,39.19,34.43z"/>
		</g>
		<g>
			<path class="st1" d="M138.56,21.46c0,0,17.87-1.33,22.58,18.61h21.6C181.64,29.86,175.66,0,143.31,0h-37.59
				c-1.2,6.13-3.1,14.5-8.65,21.46H138.56z"/>
		</g>
		<g>
			<path class="st0" d="M137.56,66.15c0,0-24.9,0.06-30.1,0.01h0c-10.8,0-11.87-0.38-15.38-4.82c-2.14-3.32-3.3-5.41-7.81-9.31
				c-3.28-2.83-7.53-4.66-7.53-4.66c-4.53-2.03-9.87-3.29-16.32-3.29H39.67C0.3,43.86,0,87.55,0,87.55h21.2
				c1.53-22.48,23.23-22.02,23.23-22.02h11.24c0,0,9.92-0.03,17.52,8.72c1.12,1.29,2.69,3.62,2.69,3.62
				c6.53,9.73,15.47,9.68,28.15,9.68c12.06,0,39.22,0.05,39.22,0.05c32.62,0,38.42-30.36,39.45-40.33h-21.57
				C156.52,67.49,137.56,66.15,137.56,66.15z"/>
		</g>
	</g>
	<path class="st2" d="M2399.61,138.85c4.53-2.03,9.9-3.24,16.36-3.24h20.75c39.37-0.22,39.67,43.47,39.67,43.47h-21.2
		c-1.53-22.48-23.23-22.02-23.23-22.02h-11.24c0,0-10,0.15-17.52,8.72"/>
	<path class="st3" d="M2067.6-660.84c4.53-2.03,9.9-3.24,16.36-3.24h20.75c39.37-0.22,39.67,43.47,39.67,43.47h-21.2
		c-1.53-22.48-23.23-22.02-23.23-22.02h-11.24c0,0-10,0.15-17.52,8.72"/>
</g>
<g id="图层_3">
	<path class="st4" d="M3165.18,617.29c0,0,0-28.36,28.35-28.36s28.35,28.36,28.35,28.36s0,21.27,28.35,21.27
		s28.35-21.27,28.35-21.27"/>
</g>
</svg>
