<?xml version="1.0" encoding="utf-8"?>
<svg version="1.1" id="1" xmlns="http://www.w3.org/2000/svg" xmlns:xlink="http://www.w3.org/1999/xlink" x="0px" y="0px"
	 viewBox="0 0 200 200" style="enable-background:new 0 0 200 200;" xml:space="preserve">
<style type="text/css">
	.st0{fill:#1860A1;}
	.st1{fill:none;stroke:#1860A1;stroke-width:1.4041;stroke-linecap:round;stroke-linejoin:round;stroke-miterlimit:10;}
	.st2{opacity:0.3;fill:#1860A1;}
	.st3{opacity:0.5;fill:#1860A1;}
	.st4{opacity:0.1;fill:#3881C3;}
</style>
<g>
	<path class="st0" d="M25.7,180.8l3.9,1c-0.8,3.2-2.3,5.7-4.4,7.4c-2.1,1.7-4.7,2.6-7.7,2.6c-3.2,0-5.7-0.7-7.7-2
		c-2-1.3-3.5-3.2-4.5-5.7c-1-2.5-1.5-5.2-1.5-8c0-3.1,0.6-5.8,1.7-8.1c1.2-2.3,2.8-4.1,5-5.3c2.2-1.2,4.5-1.8,7.1-1.8
		c2.9,0,5.4,0.8,7.4,2.3s3.4,3.7,4.2,6.4l-3.8,0.9c-0.7-2.2-1.7-3.8-3-4.7c-1.3-1-2.9-1.5-4.9-1.5c-2.3,0-4.1,0.5-5.6,1.6
		s-2.6,2.6-3.2,4.4c-0.6,1.9-0.9,3.8-0.9,5.7c0,2.5,0.4,4.8,1.1,6.7c0.7,1.9,1.9,3.3,3.4,4.2c1.5,0.9,3.2,1.4,5,1.4
		c2.2,0,4-0.6,5.5-1.9C24.1,185.2,25.1,183.3,25.7,180.8z"/>
	<path class="st0" d="M33.3,191.2v-21.6h3.2v3.3c0.8-1.5,1.6-2.5,2.3-3c0.7-0.5,1.5-0.7,2.3-0.7c1.2,0,2.4,0.4,3.7,1.2l-1.2,3.4
		c-0.9-0.5-1.8-0.8-2.6-0.8c-0.8,0-1.5,0.2-2.1,0.7c-0.6,0.5-1.1,1.2-1.3,2c-0.4,1.3-0.6,2.7-0.6,4.3v11.3H33.3z"/>
	<path class="st0" d="M48,199.6l-0.4-3.4c0.8,0.2,1.5,0.3,2.1,0.3c0.8,0,1.4-0.1,1.9-0.4s0.9-0.7,1.2-1.1c0.2-0.4,0.6-1.3,1.1-2.7
		c0.1-0.2,0.2-0.5,0.3-0.9l-8.1-21.7H50l4.4,12.5c0.6,1.6,1.1,3.3,1.5,5c0.4-1.7,0.9-3.3,1.5-4.9l4.5-12.6h3.6l-8.1,22
		c-0.9,2.4-1.5,4-2,4.9c-0.6,1.2-1.4,2.1-2.2,2.7c-0.8,0.6-1.8,0.8-3,0.8C49.6,200,48.8,199.9,48,199.6z"/>
	<path class="st0" d="M66.5,184.8l3.6-0.6c0.2,1.5,0.8,2.6,1.7,3.3c0.9,0.8,2.2,1.2,3.8,1.2c1.7,0,2.9-0.3,3.7-1
		c0.8-0.7,1.2-1.5,1.2-2.4c0-0.8-0.4-1.5-1.1-2c-0.5-0.3-1.7-0.7-3.7-1.2c-2.6-0.7-4.5-1.3-5.5-1.8c-1-0.5-1.8-1.2-2.3-2.1
		c-0.5-0.9-0.8-1.8-0.8-2.9c0-1,0.2-1.9,0.6-2.7c0.4-0.8,1-1.5,1.8-2c0.6-0.4,1.3-0.8,2.3-1.1c1-0.3,2-0.4,3.1-0.4
		c1.7,0,3.1,0.2,4.4,0.7c1.3,0.5,2.2,1.2,2.8,2c0.6,0.8,1,2,1.2,3.3l-3.5,0.5c-0.2-1.1-0.6-2-1.4-2.6c-0.8-0.6-1.8-0.9-3.2-0.9
		c-1.7,0-2.8,0.3-3.5,0.8c-0.7,0.6-1.1,1.2-1.1,2c0,0.5,0.1,0.9,0.4,1.3c0.3,0.4,0.8,0.7,1.4,1c0.4,0.1,1.4,0.4,3.2,0.9
		c2.5,0.7,4.3,1.3,5.3,1.7c1,0.4,1.8,1.1,2.4,1.9c0.6,0.8,0.9,1.9,0.9,3.1c0,1.2-0.3,2.4-1,3.5c-0.7,1.1-1.7,1.9-3,2.5
		c-1.3,0.6-2.8,0.9-4.5,0.9c-2.8,0-4.9-0.6-6.3-1.8C67.9,188.8,66.9,187.1,66.5,184.8z"/>
	<path class="st0" d="M95.7,187.9l0.5,3.2c-1,0.2-1.9,0.3-2.7,0.3c-1.3,0-2.3-0.2-3-0.6c-0.7-0.4-1.2-1-1.5-1.7
		c-0.3-0.7-0.4-2.1-0.4-4.3v-12.4h-2.6v-2.9h2.6v-5.4L92,162v7.6h3.6v2.9H92v12.6c0,1,0.1,1.7,0.2,2c0.1,0.3,0.3,0.5,0.6,0.7
		c0.3,0.2,0.7,0.3,1.2,0.3C94.5,188.1,95,188,95.7,187.9z"/>
	<path class="st0" d="M113,188.6c-1.3,1.2-2.6,2-3.8,2.4c-1.2,0.5-2.6,0.7-4,0.7c-2.3,0-4.1-0.6-5.4-1.7c-1.3-1.2-1.9-2.6-1.9-4.4
		c0-1.1,0.2-2,0.7-2.9c0.5-0.9,1.1-1.6,1.9-2.1c0.8-0.5,1.6-0.9,2.6-1.2c0.7-0.2,1.8-0.4,3.2-0.5c2.9-0.4,5-0.8,6.4-1.3
		c0-0.5,0-0.8,0-1c0-1.5-0.3-2.5-1-3.2c-0.9-0.8-2.3-1.2-4.1-1.2c-1.7,0-2.9,0.3-3.7,0.9c-0.8,0.6-1.4,1.7-1.8,3.2l-3.5-0.5
		c0.3-1.5,0.8-2.8,1.6-3.7c0.7-0.9,1.8-1.7,3.2-2.2s3-0.8,4.8-0.8c1.8,0,3.3,0.2,4.4,0.7c1.1,0.4,2,1,2.5,1.6
		c0.5,0.7,0.9,1.5,1.1,2.5c0.1,0.6,0.2,1.8,0.2,3.4v4.9c0,3.4,0.1,5.6,0.2,6.5c0.2,0.9,0.5,1.8,0.9,2.6h-3.8
		C113.4,190.5,113.1,189.6,113,188.6z M112.7,180.4c-1.3,0.5-3.3,1-5.9,1.4c-1.5,0.2-2.5,0.5-3.1,0.7s-1.1,0.7-1.4,1.2
		c-0.3,0.5-0.5,1.1-0.5,1.7c0,1,0.4,1.8,1.1,2.4c0.7,0.7,1.8,1,3.2,1c1.4,0,2.6-0.3,3.7-0.9c1.1-0.6,1.9-1.5,2.4-2.5
		c0.4-0.8,0.6-2,0.6-3.7V180.4z"/>
	<path class="st0" d="M122,191.2v-29.9h3.9v26.3h14.4v3.5H122z"/>
	<path class="st0" d="M164.2,180.8l3.9,1c-0.8,3.2-2.3,5.7-4.4,7.4c-2.1,1.7-4.7,2.6-7.7,2.6c-3.2,0-5.7-0.7-7.7-2
		c-2-1.3-3.5-3.2-4.5-5.7c-1-2.5-1.5-5.2-1.5-8c0-3.1,0.6-5.8,1.7-8.1c1.2-2.3,2.8-4.1,5-5.3c2.2-1.2,4.5-1.8,7.1-1.8
		c2.9,0,5.4,0.8,7.4,2.3c2,1.5,3.4,3.7,4.2,6.4l-3.8,0.9c-0.7-2.2-1.7-3.8-3-4.7s-2.9-1.5-4.9-1.5c-2.3,0-4.1,0.5-5.6,1.6
		c-1.5,1.1-2.6,2.6-3.2,4.4c-0.6,1.9-0.9,3.8-0.9,5.7c0,2.5,0.4,4.8,1.1,6.7c0.7,1.9,1.9,3.3,3.4,4.2c1.5,0.9,3.2,1.4,5,1.4
		c2.2,0,4-0.6,5.5-1.9C162.6,185.2,163.6,183.3,164.2,180.8z"/>
	<path class="st0" d="M168.9,191.2l11.3-29.9h4.2l12,29.9H192l-3.4-9h-12.3l-3.2,9H168.9z M177.4,179h9.9l-3.1-8.3
		c-0.9-2.5-1.6-4.6-2.1-6.2c-0.4,1.9-0.9,3.8-1.6,5.7L177.4,179z"/>
</g>
<g>
	<g>
		<polyline class="st1" points="95.8,0.8 29.5,39.1 29.5,115.6 95.8,153.9 		"/>
		<polyline class="st1" points="73.8,39.3 29.8,39.3 95.9,153.9 		"/>
		<line class="st1" x1="95.9" y1="0.8" x2="29.8" y2="115.4"/>
		<polygon class="st1" points="95.9,0.8 162.1,115.4 118,115.4 		"/>
		<polyline class="st1" points="118,39.3 162.1,39.3 29.8,115.4 		"/>
		<polyline class="st1" points="29.8,39.3 118,115.4 96.1,153.9 162.3,115.6 162.3,39.1 96.1,0.8 		"/>
	</g>
	<polygon class="st2" points="118.1,115.4 96.1,153.9 162.5,115.6 	"/>
	<polygon class="st0" points="29.6,115.6 96.1,153.9 63,96.6 	"/>
	<polygon class="st3" points="29.6,39.1 63,96.6 162.5,39.1 	"/>
	<polygon class="st2" points="95.9,0.8 29.6,39.1 29.6,115.6 	"/>
	<polygon class="st2" points="95.9,0.8 162.5,39.1 162.5,115.6 	"/>
	<polygon class="st4" points="95.9,0.8 59.1,64.5 118.1,115.4 	"/>
	<polygon class="st0" points="95.9,0.8 129.1,58.1 162.5,39.1 	"/>
</g>
</svg>
