<?xml version="1.0" encoding="utf-8"?>
<svg version="1.1" id="1" xmlns="http://www.w3.org/2000/svg" xmlns:xlink="http://www.w3.org/1999/xlink" x="0px" y="0px"
	 viewBox="0 0 200 200" style="enable-background:new 0 0 200 200;" xml:space="preserve">
<style type="text/css">
	.st0{opacity:0.3;fill:#2675BB;}
	.st1{fill:#2675BB;}
	.st2{fill:none;stroke:#2675BB;stroke-width:1.8162;stroke-linecap:round;stroke-linejoin:round;stroke-miterlimit:10;}
	.st3{opacity:0.5;fill:#2675BB;}
	.st4{opacity:0.1;fill:#2675BB;}
</style>
<polygon class="st0" points="127.7,149.2 99.1,199 185,149.5 "/>
<polygon class="st1" points="13.2,149.5 99.1,199 56.3,124.9 "/>
<polygon class="st0" points="98.9,1 13.2,50.5 13.2,149.5 "/>
<polygon class="st0" points="98.9,1 185,50.5 185,149.5 "/>
<g>
	<polyline class="st2" points="98.7,1 13,50.5 13,149.5 98.7,199 	"/>
	<polyline class="st2" points="70.3,50.8 13.4,50.8 98.9,199 	"/>
	<line class="st2" x1="98.9" y1="1" x2="13.4" y2="149.2"/>
	<polygon class="st2" points="98.9,1 184.5,149.2 127.5,149.2 	"/>
	<polyline class="st2" points="127.5,50.8 184.5,50.8 13.4,149.2 	"/>
	<polyline class="st2" points="13.4,50.8 127.5,149.2 99.1,199 184.8,149.5 184.8,50.5 99.1,1 	"/>
</g>
<polygon class="st3" points="13.2,50.5 56.3,124.9 185,50.5 "/>
<polygon class="st4" points="98.9,1 51.3,83.4 127.7,149.2 "/>
<polygon class="st1" points="98.9,1 141.9,75.1 185,50.5 "/>
</svg>
