<?xml version="1.0" encoding="utf-8"?>
<!-- Generator: Adobe Illustrator 25.4.1, SVG Export Plug-In . SVG Version: 6.00 Build 0)  -->
<svg version="1.1" xmlns="http://www.w3.org/2000/svg" xmlns:xlink="http://www.w3.org/1999/xlink" x="0px" y="0px"
	 viewBox="0 0 170.08 170.08" style="enable-background:new 0 0 170.08 170.08;" xml:space="preserve">
<style type="text/css">
	.st0{fill:#5C246A;}
	.st1{display:none;fill:none;stroke:#F8B62D;stroke-width:0.5;stroke-miterlimit:10;}
	.st2{fill:#FFFFFF;}
	.st3{display:none;fill:none;stroke:#EFB134;stroke-width:0.5;stroke-miterlimit:10;}
	.st4{fill:none;stroke:#000000;stroke-width:0.5;stroke-miterlimit:10;}
</style>
<g id="图层_2">
</g>
<g id="图层_1">
	<path class="st0" d="M141.73,170.08H28.35C12.69,170.08,0,157.39,0,141.73V28.35C0,12.69,12.69,0,28.35,0h113.39
		c15.66,0,28.35,12.69,28.35,28.35v113.39C170.08,157.39,157.39,170.08,141.73,170.08z"/>
	<path class="st1" d="M1465.32-351.4c4.53-2.03,9.9-3.24,16.36-3.24h20.75c39.37-0.22,39.67,43.47,39.67,43.47h-21.2
		c-1.53-22.48-23.23-22.02-23.23-22.02h-11.24c0,0-10,0.15-17.52,8.72"/>
	<g>
		<g>
			<path class="st2" d="M104.09,79.8v18.44h10.56c4.23,0,7.66-3.43,7.66-7.66V72.14h-10.56C107.52,72.14,104.09,75.57,104.09,79.8z"
				/>
		</g>
		<g>
			<path class="st2" d="M40.74,77.08h17.97c23.38,0,30.34-18.61,32.41-29.24H72.23c-4.7,10.86-17.28,11.01-17.28,11.01h-10
				c0,0-10.99,0.25-17.74-11.01H8.33C10.4,58.47,17.35,77.08,40.74,77.08z"/>
		</g>
		<g>
			<path class="st2" d="M125.11,66.06c0,0,15.17-1.13,19.17,15.81h18.34c-0.93-8.67-6.01-34.03-33.47-34.03H97.23
				c-1.01,5.21-2.63,12.32-7.34,18.22H125.11z"/>
		</g>
		<g>
			<path class="st2" d="M124.26,104.01c0,0-21.14,0.05-25.56,0.01h0c-9.17,0-10.08-0.32-13.06-4.09c-1.82-2.82-2.8-4.6-6.63-7.9
				c-2.79-2.41-6.39-3.96-6.39-3.96c-3.85-1.72-8.38-2.79-13.86-2.79H41.15C7.71,85.09,7.46,122.19,7.46,122.19h18
				c1.3-19.09,19.73-18.69,19.73-18.69h9.55c0,0,8.42-0.03,14.88,7.4c0.95,1.1,2.29,3.08,2.29,3.08c5.54,8.26,13.14,8.22,23.9,8.22
				c10.24,0,33.3,0.05,33.3,0.05c27.69,0,32.62-25.78,33.5-34.24h-18.31C140.36,105.15,124.26,104.01,124.26,104.01z"/>
		</g>
	</g>
	<path class="st3" d="M1133.31-1151.09c4.53-2.03,9.9-3.24,16.36-3.24h20.75c39.37-0.22,39.67,43.47,39.67,43.47h-21.2
		c-1.53-22.48-23.23-22.02-23.23-22.02h-11.24c0,0-10,0.15-17.52,8.72"/>
</g>
<g id="图层_3">
	<path class="st4" d="M2230.88,127.04c0,0,0-28.36,28.35-28.36s28.35,28.36,28.35,28.36s0,21.27,28.35,21.27
		s28.35-21.27,28.35-21.27"/>
</g>
</svg>
