<?xml version="1.0" encoding="utf-8"?>
<svg version="1.1" id="1" xmlns="http://www.w3.org/2000/svg" xmlns:xlink="http://www.w3.org/1999/xlink" x="0px" y="0px"
	 viewBox="0 0 42 42" style="enable-background:new 0 0 42 42;" xml:space="preserve">
<style type="text/css">
	.st0{fill:none;stroke:#1860A1;stroke-width:0.3093;stroke-linecap:round;stroke-linejoin:round;stroke-miterlimit:10;}
	.st1{opacity:0.3;fill:#1860A1;enable-background:new    ;}
	.st2{fill:#1860A1;}
	.st3{opacity:0.5;fill:#1860A1;enable-background:new    ;}
	.st4{opacity:0.1;fill:#3881C3;enable-background:new    ;}
</style>
<g>
	<g>
		<g>
			<polyline class="st0" points="21,4.1 6.3,12.6 6.3,29.4 21,37.9 			"/>
			<polyline class="st0" points="16.1,12.6 6.4,12.6 21,37.9 			"/>
			<line class="st0" x1="21" y1="4.1" x2="6.4" y2="29.4"/>
			<polygon class="st0" points="21,4.1 35.6,29.4 25.9,29.4 			"/>
			<polyline class="st0" points="25.9,12.6 35.6,12.6 6.4,29.4 			"/>
			<polyline class="st0" points="6.4,12.6 25.9,29.4 21,37.9 35.6,29.4 35.6,12.6 21,4.1 			"/>
		</g>
		<polygon class="st1" points="25.9,29.4 21,37.9 35.7,29.4 		"/>
		<polygon class="st2" points="6.4,29.4 21,37.9 13.7,25.2 		"/>
		<polygon class="st3" points="6.4,12.6 13.7,25.2 35.7,12.6 		"/>
		<polygon class="st1" points="21,4.1 6.4,12.6 6.4,29.4 		"/>
		<polygon class="st1" points="21,4.1 35.7,12.6 35.7,29.4 		"/>
		<polygon class="st4" points="21,4.1 12.9,18.2 25.9,29.4 		"/>
		<polygon class="st2" points="21,4.1 28.3,16.8 35.7,12.6 		"/>
	</g>
</g>
</svg>
